<?xml version="1.0" encoding="utf-8"?>
<!-- Generator: Adobe Illustrator 16.0.0, SVG Export Plug-In . SVG Version: 6.00 Build 0)  -->
<!DOCTYPE svg PUBLIC "-//W3C//DTD SVG 1.1//EN" "http://www.w3.org/Graphics/SVG/1.1/DTD/svg11.dtd">
<svg version="1.1" id="Layer_1" xmlns="http://www.w3.org/2000/svg" xmlns:xlink="http://www.w3.org/1999/xlink" x="0px" y="0px"
	 width="32px" height="32px" viewBox="0 0 32 32" enable-background="new 0 0 32 32" xml:space="preserve">
<g id="banknote">
	<path fill-rule="evenodd" clip-rule="evenodd" fill="#333333" d="M31.415,10.586l-10-10C20.919,0.09,20.2-0.109,19.519,0.059
		c-0.359,0.088-0.68,0.273-0.934,0.527c-0.227,0.227-0.398,0.508-0.496,0.822c-0.453,1.469-1.236,2.746-2.395,3.904
		C14.146,6.859,12.13,8.031,9.997,9.27c-2.264,1.312-4.603,2.672-6.52,4.588c-1.629,1.631-2.738,3.445-3.388,5.551
		c-0.219,0.711-0.028,1.48,0.496,2.006l10,10c0.496,0.496,1.215,0.695,1.896,0.527c0.359-0.09,0.68-0.273,0.934-0.527
		c0.227-0.227,0.398-0.508,0.496-0.824c0.454-1.469,1.237-2.746,2.397-3.904c1.547-1.547,3.562-2.717,5.697-3.955
		c2.262-1.314,4.602-2.674,6.518-4.59c1.629-1.629,2.738-3.445,3.389-5.551C32.13,11.881,31.938,11.109,31.415,10.586z M12,30
		C8.688,26.688,5.312,23.311,2,20c2.842-9.201,15.16-8.799,18-18c3.312,3.311,6.689,6.688,10.002,10
		C27.159,21.199,14.841,20.799,12,30z"/>
	<path fill-rule="evenodd" clip-rule="evenodd" fill="#333333" d="M19.562,14.9c-0.326-0.273-0.654-0.459-0.984-0.551
		c-0.328-0.092-0.656-0.129-0.988-0.105c-0.328,0.025-0.664,0.1-1,0.229c-0.336,0.131-0.674,0.273-1.014,0.438
		c-0.537-0.617-1.074-1.227-1.611-1.793c0.242-0.219,0.477-0.33,0.703-0.338c0.227-0.01,0.445,0.014,0.652,0.066
		c0.211,0.053,0.404,0.098,0.582,0.133c0.18,0.035,0.336-0.004,0.473-0.119c0.145-0.125,0.225-0.287,0.236-0.482
		c0.01-0.197-0.064-0.389-0.229-0.576c-0.211-0.242-0.465-0.389-0.77-0.443c-0.301-0.053-0.609-0.049-0.93,0.021
		c-0.316,0.072-0.617,0.191-0.902,0.359s-0.514,0.34-0.684,0.508c-0.065-0.062-0.13-0.123-0.195-0.184
		c-0.072-0.066-0.162-0.102-0.27-0.1c-0.109,0-0.199,0.047-0.273,0.133c-0.072,0.084-0.105,0.182-0.092,0.285
		c0.01,0.107,0.053,0.189,0.127,0.252c0.065,0.055,0.13,0.109,0.195,0.166c-0.256,0.309-0.467,0.65-0.633,1.01
		c-0.168,0.361-0.268,0.719-0.305,1.066c-0.039,0.35-0.002,0.67,0.105,0.967c0.107,0.299,0.305,0.553,0.594,0.793
		c0.471,0.391,1.025,0.557,1.668,0.52c0.641-0.039,1.332-0.23,2.075-0.629c0.59,0.682,1.182,1.359,1.773,1.988
		c-0.25,0.211-0.469,0.332-0.662,0.371c-0.193,0.041-0.365,0.037-0.521-0.01c-0.156-0.049-0.301-0.119-0.434-0.209
		c-0.133-0.092-0.264-0.17-0.395-0.234c-0.129-0.064-0.262-0.1-0.398-0.102s-0.281,0.064-0.441,0.201
		c-0.164,0.143-0.246,0.309-0.246,0.496c0,0.186,0.086,0.375,0.254,0.566c0.17,0.191,0.391,0.352,0.658,0.479
		s0.569,0.207,0.901,0.229c0.332,0.023,0.682-0.027,1.051-0.164c0.371-0.135,0.738-0.379,1.1-0.742
		c0.174,0.17,0.35,0.332,0.525,0.488c0.074,0.064,0.164,0.096,0.273,0.088c0.105-0.004,0.197-0.053,0.27-0.141
		c0.074-0.09,0.105-0.189,0.094-0.293c-0.01-0.105-0.053-0.186-0.125-0.244c-0.176-0.141-0.352-0.289-0.527-0.445
		c0.299-0.367,0.539-0.754,0.717-1.137c0.178-0.385,0.283-0.756,0.318-1.1c0.035-0.346-0.006-0.658-0.119-0.941
		C20.046,15.383,19.847,15.137,19.562,14.9z M13.971,15.578c-0.283,0.012-0.53-0.082-0.746-0.291
		c-0.092-0.088-0.156-0.195-0.195-0.322c-0.041-0.127-0.055-0.266-0.039-0.418c0.014-0.15,0.059-0.307,0.137-0.465
		c0.074-0.158,0.184-0.316,0.324-0.469c0.507,0.504,1.013,1.057,1.52,1.629C14.588,15.453,14.254,15.566,13.971,15.578z
		 M18.688,17.58c-0.09,0.166-0.193,0.314-0.314,0.443c-0.561-0.566-1.121-1.188-1.68-1.826c0.143-0.064,0.293-0.131,0.455-0.199
		s0.324-0.113,0.486-0.141c0.166-0.025,0.33-0.018,0.494,0.021c0.162,0.041,0.316,0.129,0.459,0.268
		c0.141,0.141,0.23,0.287,0.266,0.445c0.039,0.16,0.041,0.322,0.014,0.488C18.839,17.246,18.78,17.412,18.688,17.58z"/>
	<path fill-rule="evenodd" clip-rule="evenodd" fill="#333333" d="M14.717,22.18h-0.002c-0.625,0.48-1.235,0.986-1.8,1.553
		c-0.543,0.543-1.034,1.115-1.461,1.699l-0.684,0.934l0.002,0.002c-0.125,0.195-0.104,0.457,0.066,0.627
		c0.195,0.195,0.514,0.195,0.71,0c0.03-0.031,0.054-0.064,0.074-0.1l0.639-0.875c0.396-0.541,0.854-1.074,1.361-1.58
		c0.561-0.561,1.081-0.994,1.714-1.475l-0.002-0.002c0.018-0.014,0.035-0.025,0.051-0.041c0.196-0.195,0.196-0.514,0-0.709
		C15.204,22.029,14.914,22.021,14.717,22.18z"/>
	<path fill-rule="evenodd" clip-rule="evenodd" fill="#333333" d="M18.378,7.715c-0.523,0.523-1.09,0.994-1.678,1.443
		c-0.041,0.023-0.082,0.049-0.117,0.086c-0.197,0.197-0.197,0.518,0,0.715c0.191,0.193,0.5,0.197,0.699,0.014l0.004,0.002
		c0.625-0.48,1.234-0.988,1.799-1.553c0.543-0.543,1.033-1.113,1.461-1.697l0.684-0.938l-0.002-0.002
		c0.17-0.199,0.162-0.496-0.025-0.684c-0.197-0.197-0.516-0.197-0.713,0c-0.037,0.037-0.064,0.08-0.088,0.123l-0.664,0.91
		C19.341,6.678,18.884,7.209,18.378,7.715z"/>
</g>
</svg>
