<?xml version="1.0" encoding="utf-8"?>
<!-- Generator: Adobe Illustrator 16.0.0, SVG Export Plug-In . SVG Version: 6.00 Build 0)  -->
<!DOCTYPE svg PUBLIC "-//W3C//DTD SVG 1.1//EN" "http://www.w3.org/Graphics/SVG/1.1/DTD/svg11.dtd">
<svg version="1.1" id="Layer_1" xmlns="http://www.w3.org/2000/svg" xmlns:xlink="http://www.w3.org/1999/xlink" x="0px" y="0px"
	 width="32px" height="32px" viewBox="0 0 32 32" enable-background="new 0 0 32 32" xml:space="preserve">
<g id="clock">
	<circle fill="#333333" cx="16" cy="10" r="1"/>
	<circle fill="#333333" cx="16" cy="22" r="1"/>
	<circle fill="#333333" cx="10" cy="16" r="1"/>
	<circle fill="#333333" cx="22" cy="16" r="1"/>
	<circle fill="#333333" cx="11.757" cy="20.242" r="1"/>
	<circle fill="#333333" cx="11.757" cy="11.757" r="1"/>
	<circle fill="#333333" cx="20.242" cy="20.242" r="1"/>
	<path fill="#333333" d="M26,14c-0.07,0-0.129,0.033-0.197,0.04c-0.348-1.745-1.17-3.306-2.297-4.594L22.07,1.634
		C21.895,0.687,21.068,0,20.104,0h-8c-0.964,0-1.79,0.688-1.967,1.635l-1.4,7.549C7.057,10.971,6,13.352,6,16
		c0,2.583,1.014,4.905,2.621,6.678l1.412,7.688C10.209,31.312,11.036,32,12,32h8c0.963,0,1.789-0.688,1.967-1.635l1.424-7.682
		c1.189-1.311,2.053-2.92,2.412-4.725C25.871,17.967,25.93,18,26,18c1.104,0,2-0.896,2-2C28,14.895,27.104,14,26,14z M12.104,2h8
		l1,5.387C19.627,6.528,17.936,6,16.104,6c-1.831,0-3.523,0.528-5,1.387L12.104,2z M20,30h-8l-1-5.387
		C12.476,25.471,14.168,26,16,26c1.831,0,3.524-0.529,5-1.387L20,30z M16,24c-4.411,0-8-3.59-8-8c0-4.411,3.589-8,8-8
		c4.411,0,8,3.589,8,8C24,20.41,20.41,24,16,24z"/>
	<path fill="#333333" d="M20.941,11.026c-0.121-0.121-0.316-0.131-0.453-0.021l-5.192,4.285C15.105,15.482,15,15.736,15,16.008
		c0,0.263,0.102,0.512,0.289,0.698s0.438,0.29,0.707,0.292c0.25-0.002,0.51-0.095,0.699-0.277l1.848-2.225l2.426-3.021
		C21.074,11.342,21.062,11.147,20.941,11.026z"/>
</g>
</svg>
