<?xml version="1.0" encoding="utf-8"?>
<!-- Generator: Adobe Illustrator 16.0.0, SVG Export Plug-In . SVG Version: 6.00 Build 0)  -->
<!DOCTYPE svg PUBLIC "-//W3C//DTD SVG 1.1//EN" "http://www.w3.org/Graphics/SVG/1.1/DTD/svg11.dtd">
<svg version="1.1" xmlns="http://www.w3.org/2000/svg" xmlns:xlink="http://www.w3.org/1999/xlink" x="0px" y="0px" width="32px"
	 height="32px" viewBox="0 0 32 32" enable-background="new 0 0 32 32" xml:space="preserve">
<g id="Layer_1">
	<g id="fire_1_">
		<path fill="#333333" d="M22,9c-0.062,2.675-2.07,4.934-2.07,4.934C19.93,8.958,16,5,16,5s-0.053,2.962-2.043,5.948
			C11.967,3.981,5.995,0,5.995,0C8.981,10.948,5,14.93,5,22.892C5,27.563,8.954,32,15,32c8.957,0,10.689-3.288,11.615-6.993
			C27.891,19.906,25.98,13.976,22,9z M24.676,24.521C24.033,27.09,23.307,30,15,30c-5.008,0-8-3.614-8-7.108
			c0-2.676,0.488-4.873,1.004-7.199c0.656-2.949,1.328-5.968,1.037-9.961c3.084,4.269,4.182,9.925,4.182,9.925
			s2.871-4.031,3.643-5.903C17.457,10.957,18,15,18,19c0,0,2.656-2.188,4.648-5.478C24.746,17.284,25.502,21.217,24.676,24.521z"/>
		<path fill="#333333" d="M22.432,16.795l-0.85,0.985c-1.053,1.228-2.049,2.392-4.708,3.73c-0.381-1.142-0.727-2.399-0.727-4.323
			v-1.709l-1.518,2.378c-0.512,0.811-0.936,1.483-1.568,2.376c-0.959-2.162-1.637-3.761-2.152-5.212l-0.479-1.35l-0.52,1.51
			c-0.66,1.921-1.285,3.735-1.285,8.444c0,0.276,0.223,0.5,0.5,0.5c0.275,0,0.5-0.224,0.5-0.5c0-3.609,0.359-5.396,0.84-6.941
			c0.52,1.322,1.176,2.825,2.037,4.75l0.352,0.784l0.508-0.692c0.83-1.13,1.324-1.89,1.865-2.743c0.158,1.479,0.523,2.54,0.885,3.59
			l0.182,0.528l0.506-0.239c2.703-1.284,3.968-2.453,4.972-3.575c0.156,1.864-0.09,3.904-0.674,5.353
			c-0.104,0.256,0.021,0.547,0.277,0.65c0.061,0.024,0.125,0.036,0.188,0.036c0.197,0,0.385-0.118,0.463-0.313
			c0.775-1.924,1.008-4.664,0.592-6.982L22.432,16.795z"/>
	</g>
</g>
<g id="Layer_2">
</g>
</svg>
