<?xml version="1.0" encoding="utf-8"?>
<!-- Generator: Adobe Illustrator 16.0.0, SVG Export Plug-In . SVG Version: 6.00 Build 0)  -->
<!DOCTYPE svg PUBLIC "-//W3C//DTD SVG 1.1//EN" "http://www.w3.org/Graphics/SVG/1.1/DTD/svg11.dtd">
<svg version="1.1" id="Layer_1" xmlns="http://www.w3.org/2000/svg" xmlns:xlink="http://www.w3.org/1999/xlink" x="0px" y="0px"
	 width="32px" height="32px" viewBox="0 0 32 32" enable-background="new 0 0 32 32" xml:space="preserve">
<g id="heart">
	<path fill-rule="evenodd" clip-rule="evenodd" fill="#333333" d="M29.193,5.265c-3.629-3.596-9.432-3.671-13.191-0.288
		C12.242,1.594,6.441,1.669,2.81,5.265c-3.741,3.704-3.741,9.709,0,13.415c1.069,1.059,11.053,10.941,11.053,10.941
		c1.183,1.172,3.096,1.172,4.278,0c0,0,10.932-10.822,11.053-10.941C32.936,14.974,32.936,8.969,29.193,5.265z M27.768,17.268
		L16.715,28.209c-0.393,0.391-1.034,0.391-1.425,0L4.237,17.268c-2.95-2.92-2.95-7.671,0-10.591
		c2.844-2.815,7.416-2.914,10.409-0.222l1.356,1.22l1.355-1.22c2.994-2.692,7.566-2.594,10.41,0.222
		C30.717,9.596,30.717,14.347,27.768,17.268z"/>
	<path fill-rule="evenodd" clip-rule="evenodd" fill="#333333" d="M9.253,7.501c-0.002,0-0.002,0.001-0.004,0.001
		c-2.345,0.002-4.246,1.903-4.246,4.249l0,0c0,0.276,0.224,0.5,0.5,0.5s0.5-0.224,0.5-0.5V11.75c0-1.794,1.455-3.249,3.249-3.249
		h0.001c0.276,0,0.5-0.224,0.5-0.5S9.53,7.501,9.253,7.501z"/>
</g>
</svg>
