<?xml version="1.0" encoding="utf-8"?>
<!-- Generator: Adobe Illustrator 16.0.0, SVG Export Plug-In . SVG Version: 6.00 Build 0)  -->
<!DOCTYPE svg PUBLIC "-//W3C//DTD SVG 1.1//EN" "http://www.w3.org/Graphics/SVG/1.1/DTD/svg11.dtd">
<svg version="1.1" id="Layer_1" xmlns="http://www.w3.org/2000/svg" xmlns:xlink="http://www.w3.org/1999/xlink" x="0px" y="0px"
	 width="32px" height="32px" viewBox="0 0 32 32" enable-background="new 0 0 32 32" xml:space="preserve">
<g id="study_1_">
	<path fill="#333333" d="M32,8c0-1.406-0.957-2.608-2.326-2.924L16.661,2.073C16.443,2.024,16.221,2,16,2
		c-0.221,0-0.443,0.024-0.675,0.076l-12.999,3C0.956,5.392,0,6.594,0,8s0.957,2.608,2.325,2.924L5,11.541V20c0,2.654,3.038,5,11,5
		s11-2.346,11-5v-8.459l2.674-0.617C31.043,10.608,32,9.406,32,8z M25,20c0,1.105-3,3-9,3c-6,0-9-1.895-9-3v-7.997l8.338,1.924
		C15.556,13.976,15.779,14,16,14c0.221,0,0.444-0.024,0.674-0.076L25,12.003V20z M16.225,11.975C16.15,11.991,16.075,12,16,12
		s-0.151-0.009-0.225-0.025l-13-3C2.321,8.87,2,8.466,2,8s0.321-0.87,0.775-0.975l13-3C15.849,4.009,15.924,4,16,4
		s0.151,0.009,0.225,0.025l13,3C29.678,7.13,30,7.534,30,8s-0.322,0.87-0.775,0.975L16.225,11.975z"/>
	<path fill="#333333" d="M29,13v9c0,0.553,0.447,1,1,1c0.552,0,1-0.447,1-1v-9c0-0.553-0.448-1-1-1C29.447,12,29,12.447,29,13z"/>
	<path fill="#333333" d="M30,24c-1.105,0-2,2.896-2,4s0.895,2,2,2c1.104,0,2-0.896,2-2S31.104,24,30,24z"/>
</g>
</svg>
